<svg width="808" height="308" viewBox="0 0 808 308" fill="none" xmlns="http://www.w3.org/2000/svg">
<g filter="url(#filter0_d)">
<path d="M1 0H801V300H1V0Z" fill="#00032C"/>
<path d="M293 149.537C293 142.913 284.704 136.635 271.985 132.742C274.92 119.778 273.616 109.464 267.868 106.162C266.543 105.387 264.993 105.02 263.302 105.02V109.566C264.239 109.566 264.993 109.749 265.625 110.096C268.397 111.686 269.6 117.74 268.662 125.526C268.438 127.442 268.071 129.46 267.623 131.519C263.628 130.54 259.266 129.786 254.68 129.297C251.928 125.526 249.074 122.102 246.2 119.105C252.845 112.929 259.082 109.545 263.322 109.545V105C257.717 105 250.379 108.995 242.959 115.925C235.54 109.036 228.202 105.082 222.596 105.082V109.627C226.816 109.627 233.073 112.99 239.718 119.126C236.865 122.122 234.011 125.526 231.3 129.297C226.693 129.786 222.331 130.54 218.336 131.539C217.868 129.501 217.521 127.523 217.276 125.628C216.318 117.841 217.501 111.788 220.252 110.177C220.864 109.81 221.659 109.647 222.596 109.647V105.102C220.884 105.102 219.335 105.469 217.99 106.243C212.262 109.545 210.978 119.839 213.934 132.762C201.255 136.676 193 142.933 193 149.537C193 156.162 201.296 162.44 214.015 166.333C211.08 179.297 212.384 189.611 218.132 192.913C219.457 193.687 221.007 194.054 222.719 194.054C228.324 194.054 235.662 190.059 243.082 183.129C250.501 190.018 257.839 193.973 263.444 193.973C265.157 193.973 266.706 193.606 268.051 192.831C273.779 189.529 275.063 179.236 272.107 166.313C284.745 162.419 293 156.141 293 149.537ZM266.461 135.942C265.707 138.571 264.769 141.282 263.709 143.993C262.874 142.362 261.997 140.732 261.039 139.101C260.102 137.47 259.103 135.881 258.104 134.331C260.998 134.759 263.791 135.289 266.461 135.942ZM257.126 157.65C255.536 160.402 253.905 163.011 252.213 165.436C249.176 165.701 246.098 165.844 243 165.844C239.922 165.844 236.844 165.701 233.828 165.457C232.136 163.031 230.485 160.442 228.895 157.711C227.346 155.041 225.939 152.33 224.655 149.598C225.919 146.867 227.346 144.136 228.874 141.466C230.464 138.714 232.095 136.105 233.787 133.679C236.824 133.414 239.902 133.272 243 133.272C246.078 133.272 249.156 133.414 252.172 133.659C253.864 136.084 255.515 138.673 257.105 141.404C258.654 144.075 260.061 146.786 261.345 149.517C260.061 152.248 258.654 154.98 257.126 157.65ZM263.709 155C264.81 157.731 265.748 160.463 266.522 163.113C263.852 163.765 261.039 164.315 258.124 164.743C259.123 163.174 260.122 161.563 261.06 159.912C261.997 158.282 262.874 156.631 263.709 155ZM243.041 176.749C241.145 174.792 239.249 172.611 237.374 170.226C239.209 170.308 241.084 170.369 242.98 170.369C244.896 170.369 246.791 170.328 248.646 170.226C246.812 172.611 244.916 174.792 243.041 176.749ZM227.876 164.743C224.981 164.315 222.189 163.785 219.519 163.133C220.273 160.503 221.21 157.793 222.27 155.082C223.106 156.712 223.982 158.343 224.94 159.974C225.898 161.604 226.877 163.194 227.876 164.743ZM242.939 122.326C244.834 124.283 246.73 126.464 248.605 128.848C246.771 128.767 244.896 128.706 243 128.706C241.084 128.706 239.188 128.746 237.333 128.848C239.168 126.464 241.064 124.283 242.939 122.326ZM227.855 134.331C226.857 135.901 225.858 137.511 224.92 139.162C223.982 140.793 223.106 142.424 222.27 144.054C221.17 141.323 220.232 138.592 219.457 135.942C222.128 135.31 224.94 134.759 227.855 134.331ZM209.408 159.851C202.193 156.773 197.525 152.737 197.525 149.537C197.525 146.337 202.193 142.281 209.408 139.223C211.161 138.469 213.077 137.797 215.055 137.165C216.216 141.16 217.745 145.318 219.641 149.578C217.766 153.818 216.257 157.956 215.116 161.93C213.098 161.298 211.182 160.605 209.408 159.851ZM220.375 188.979C217.603 187.389 216.4 181.335 217.338 173.549C217.562 171.633 217.929 169.615 218.377 167.556C222.372 168.534 226.734 169.289 231.32 169.778C234.072 173.549 236.926 176.973 239.8 179.969C233.155 186.146 226.918 189.529 222.678 189.529C221.761 189.509 220.986 189.325 220.375 188.979ZM268.724 173.447C269.682 181.233 268.499 187.287 265.748 188.897C265.136 189.264 264.341 189.427 263.404 189.427C259.184 189.427 252.927 186.064 246.282 179.929C249.135 176.932 251.989 173.528 254.7 169.757C259.307 169.268 263.669 168.514 267.664 167.515C268.132 169.574 268.499 171.551 268.724 173.447ZM276.571 159.851C274.818 160.605 272.902 161.278 270.925 161.91C269.763 157.915 268.234 153.757 266.339 149.497C268.214 145.257 269.722 141.119 270.864 137.144C272.882 137.776 274.798 138.469 276.592 139.223C283.807 142.301 288.475 146.337 288.475 149.537C288.455 152.737 283.787 156.794 276.571 159.851Z" fill="#61DAFB"/>
<path d="M242.98 158.852C248.124 158.852 252.295 154.682 252.295 149.537C252.295 144.393 248.124 140.222 242.98 140.222C237.835 140.222 233.664 144.393 233.664 149.537C233.664 154.682 237.835 158.852 242.98 158.852Z" fill="#61DAFB"/>
<path d="M71.2646 101.265H168.733V198.732H71.2646V101.265Z" fill="black"/>
<path d="M71.2646 101.265H168.733V198.732H71.2646V101.265Z" fill="#DD4B39"/>
<path fill-rule="evenodd" clip-rule="evenodd" d="M71.4912 101.491H168.509V198.509H71.4912V101.491Z" stroke="#D74837"/>
<path d="M129.081 190.167H118.047L112.616 179.836H105.386V190.167H95.6427V152.833H112.416C122.32 152.833 127.963 157.626 127.963 165.932C128.137 168.367 127.6 170.8 126.419 172.936C125.237 175.072 123.461 176.819 121.306 177.966L129.081 190.167ZM105.386 160.614V172.061H112.466C113.275 172.18 114.101 172.115 114.881 171.872C115.662 171.629 116.378 171.214 116.976 170.656C117.575 170.099 118.04 169.414 118.338 168.653C118.635 167.891 118.758 167.072 118.697 166.257C118.697 162.583 116.406 160.614 112.466 160.614H105.386V160.614ZM134.193 152.839H163.639V160.614H143.937V167.59H161.721V175.312L143.937 175.365V182.395H164.166V190.167H134.193V152.839Z" fill="white"/>
<path d="M129.081 190.167H118.047L112.616 179.836H105.386V190.167H95.6427V152.833H112.416C122.32 152.833 127.963 157.626 127.963 165.932C128.137 168.367 127.6 170.8 126.419 172.936C125.237 175.072 123.461 176.819 121.306 177.966L129.081 190.167ZM105.386 160.614V172.061H112.466C113.275 172.18 114.101 172.115 114.881 171.872C115.662 171.629 116.378 171.214 116.976 170.656C117.575 170.099 118.04 169.414 118.338 168.653C118.635 167.891 118.758 167.072 118.697 166.257C118.697 162.583 116.406 160.614 112.466 160.614H105.386V160.614ZM134.193 152.839H163.639V160.614H143.937V167.59H161.721V175.312L143.937 175.365V182.395H164.166V190.167H134.193V152.839Z" fill="white"/>
<path d="M357.513 184.287C358.154 184.287 358.75 184.183 359.3 183.975C359.858 183.758 360.379 183.479 360.863 183.137L362.013 184.7C361.429 185.183 360.729 185.575 359.913 185.875C359.104 186.167 358.292 186.312 357.475 186.312C356.15 186.312 355.017 186.029 354.075 185.462C353.142 184.896 352.429 184.1 351.938 183.075C351.446 182.05 351.2 180.85 351.2 179.475C351.2 178.142 351.446 176.954 351.938 175.912C352.438 174.862 353.158 174.033 354.1 173.425C355.042 172.817 356.179 172.512 357.513 172.512C359.229 172.512 360.721 173.029 361.988 174.062L360.85 175.625C359.742 174.858 358.633 174.475 357.525 174.475C356.425 174.475 355.525 174.883 354.825 175.7C354.125 176.517 353.775 177.775 353.775 179.475C353.775 181.183 354.125 182.412 354.825 183.162C355.533 183.912 356.429 184.287 357.513 184.287Z" fill="#336CE1"/>
<path d="M366.503 186V184.225H368.503V174.6H366.503V172.825H370.34L370.778 175.912C371.278 174.821 371.89 173.983 372.615 173.4C373.349 172.808 374.299 172.512 375.465 172.512C375.849 172.512 376.186 172.542 376.478 172.6C376.778 172.658 377.082 172.733 377.39 172.825L377.015 177.45H375.165V174.7H375.153C373.178 174.7 371.761 176.112 370.903 178.937V184.225H373.578V186H366.503Z" fill="#336CE1"/>
<path d="M383.305 180.225C383.372 181.675 383.764 182.729 384.48 183.387C385.205 184.046 386.064 184.375 387.055 184.375C387.714 184.375 388.318 184.275 388.868 184.075C389.418 183.875 389.976 183.583 390.543 183.2L391.63 184.712C391.014 185.204 390.301 185.596 389.493 185.887C388.685 186.171 387.847 186.312 386.98 186.312C385.664 186.312 384.543 186.025 383.618 185.45C382.701 184.867 382.001 184.058 381.518 183.025C381.043 181.992 380.805 180.792 380.805 179.425C380.805 178.1 381.043 176.917 381.518 175.875C382.001 174.833 382.68 174.012 383.555 173.412C384.43 172.812 385.472 172.512 386.68 172.512C388.38 172.512 389.718 173.096 390.693 174.262C391.676 175.421 392.168 177.008 392.168 179.025C392.168 179.25 392.164 179.467 392.155 179.675C392.147 179.883 392.135 180.067 392.118 180.225H383.305ZM386.705 174.387C385.764 174.387 384.985 174.721 384.368 175.387C383.751 176.054 383.397 177.083 383.305 178.475H389.855C389.83 177.142 389.539 176.129 388.98 175.437C388.43 174.737 387.672 174.387 386.705 174.387Z" fill="#336CE1"/>
<path d="M406.071 182.975C406.071 183.5 406.154 183.883 406.321 184.125C406.487 184.358 406.75 184.533 407.108 184.65L406.546 186.3C405.946 186.225 405.421 186.046 404.971 185.762C404.529 185.479 404.204 185.046 403.996 184.462C403.521 185.079 402.921 185.542 402.196 185.85C401.471 186.158 400.683 186.312 399.833 186.312C398.508 186.312 397.462 185.937 396.696 185.187C395.929 184.437 395.546 183.45 395.546 182.225C395.546 180.858 396.079 179.808 397.146 179.075C398.221 178.333 399.762 177.962 401.771 177.962H403.683V176.962C403.683 176.054 403.412 175.408 402.871 175.025C402.337 174.642 401.592 174.45 400.633 174.45C400.192 174.45 399.671 174.504 399.071 174.612C398.479 174.721 397.846 174.892 397.171 175.125L396.558 173.375C397.367 173.067 398.146 172.846 398.896 172.712C399.646 172.579 400.346 172.512 400.996 172.512C402.687 172.512 403.954 172.9 404.796 173.675C405.646 174.45 406.071 175.504 406.071 176.837V182.975ZM400.508 184.512C401.117 184.512 401.704 184.354 402.271 184.037C402.846 183.721 403.317 183.279 403.683 182.712V179.525H401.933C400.542 179.525 399.554 179.762 398.971 180.237C398.387 180.704 398.096 181.346 398.096 182.162C398.096 183.729 398.9 184.512 400.508 184.512Z" fill="#336CE1"/>
<path d="M422.048 185.325C421.582 185.625 421.019 185.862 420.361 186.037C419.711 186.221 419.053 186.312 418.386 186.312C416.919 186.312 415.794 185.929 415.011 185.162C414.236 184.396 413.848 183.4 413.848 182.175V174.625H410.861V172.825H413.848V169.85L416.248 169.562V172.825H420.748L420.473 174.625H416.248V182.15C416.248 182.875 416.432 183.421 416.798 183.787C417.173 184.154 417.794 184.337 418.661 184.337C419.144 184.337 419.59 184.283 419.998 184.175C420.415 184.058 420.798 183.904 421.148 183.712L422.048 185.325Z" fill="#336CE1"/>
<path d="M428.276 180.225C428.343 181.675 428.735 182.729 429.451 183.387C430.176 184.046 431.035 184.375 432.026 184.375C432.685 184.375 433.289 184.275 433.839 184.075C434.389 183.875 434.947 183.583 435.514 183.2L436.601 184.712C435.985 185.204 435.272 185.596 434.464 185.887C433.655 186.171 432.818 186.312 431.951 186.312C430.635 186.312 429.514 186.025 428.589 185.45C427.672 184.867 426.972 184.058 426.489 183.025C426.014 181.992 425.776 180.792 425.776 179.425C425.776 178.1 426.014 176.917 426.489 175.875C426.972 174.833 427.651 174.012 428.526 173.412C429.401 172.812 430.443 172.512 431.651 172.512C433.351 172.512 434.689 173.096 435.664 174.262C436.647 175.421 437.139 177.008 437.139 179.025C437.139 179.25 437.135 179.467 437.126 179.675C437.118 179.883 437.105 180.067 437.089 180.225H428.276ZM431.676 174.387C430.735 174.387 429.955 174.721 429.339 175.387C428.722 176.054 428.368 177.083 428.276 178.475H434.826C434.801 177.142 434.51 176.129 433.951 175.437C433.401 174.737 432.643 174.387 431.676 174.387Z" fill="#336CE1"/>
<path d="M441.366 180.187V178.162H451.516V180.187H441.366Z" fill="#336CE1"/>
<path d="M456.444 186V184.225H458.444V174.6H456.444V172.825H460.282L460.719 175.912C461.219 174.821 461.832 173.983 462.557 173.4C463.29 172.808 464.24 172.512 465.407 172.512C465.79 172.512 466.127 172.542 466.419 172.6C466.719 172.658 467.023 172.733 467.332 172.825L466.957 177.45H465.107V174.7H465.094C463.119 174.7 461.702 176.112 460.844 178.937V184.225H463.519V186H456.444Z" fill="#336CE1"/>
<path d="M473.247 180.225C473.314 181.675 473.705 182.729 474.422 183.387C475.147 184.046 476.005 184.375 476.997 184.375C477.655 184.375 478.259 184.275 478.809 184.075C479.359 183.875 479.918 183.583 480.484 183.2L481.572 184.712C480.955 185.204 480.243 185.596 479.434 185.887C478.626 186.171 477.789 186.312 476.922 186.312C475.605 186.312 474.484 186.025 473.559 185.45C472.643 184.867 471.943 184.058 471.459 183.025C470.984 181.992 470.747 180.792 470.747 179.425C470.747 178.1 470.984 176.917 471.459 175.875C471.943 174.833 472.622 174.012 473.497 173.412C474.372 172.812 475.414 172.512 476.622 172.512C478.322 172.512 479.659 173.096 480.634 174.262C481.618 175.421 482.109 177.008 482.109 179.025C482.109 179.25 482.105 179.467 482.097 179.675C482.089 179.883 482.076 180.067 482.059 180.225H473.247ZM476.647 174.387C475.705 174.387 474.926 174.721 474.309 175.387C473.693 176.054 473.339 177.083 473.247 178.475H479.797C479.772 177.142 479.48 176.129 478.922 175.437C478.372 174.737 477.614 174.387 476.647 174.387Z" fill="#336CE1"/>
<path d="M496.012 182.975C496.012 183.5 496.095 183.883 496.262 184.125C496.429 184.358 496.691 184.533 497.05 184.65L496.487 186.3C495.887 186.225 495.362 186.046 494.912 185.762C494.47 185.479 494.145 185.046 493.937 184.462C493.462 185.079 492.862 185.542 492.137 185.85C491.412 186.158 490.625 186.312 489.775 186.312C488.45 186.312 487.404 185.937 486.637 185.187C485.87 184.437 485.487 183.45 485.487 182.225C485.487 180.858 486.02 179.808 487.087 179.075C488.162 178.333 489.704 177.962 491.712 177.962H493.625V176.962C493.625 176.054 493.354 175.408 492.812 175.025C492.279 174.642 491.533 174.45 490.575 174.45C490.133 174.45 489.612 174.504 489.012 174.612C488.42 174.721 487.787 174.892 487.112 175.125L486.5 173.375C487.308 173.067 488.087 172.846 488.837 172.712C489.587 172.579 490.287 172.512 490.937 172.512C492.629 172.512 493.895 172.9 494.737 173.675C495.587 174.45 496.012 175.504 496.012 176.837V182.975ZM490.45 184.512C491.058 184.512 491.645 184.354 492.212 184.037C492.787 183.721 493.258 183.279 493.625 182.712V179.525H491.875C490.483 179.525 489.495 179.762 488.912 180.237C488.329 180.704 488.037 181.346 488.037 182.162C488.037 183.729 488.841 184.512 490.45 184.512Z" fill="#336CE1"/>
<path d="M507.415 184.287C508.057 184.287 508.652 184.183 509.202 183.975C509.761 183.758 510.282 183.479 510.765 183.137L511.915 184.7C511.332 185.183 510.632 185.575 509.815 185.875C509.007 186.167 508.194 186.312 507.377 186.312C506.052 186.312 504.919 186.029 503.977 185.462C503.044 184.896 502.332 184.1 501.84 183.075C501.348 182.05 501.102 180.85 501.102 179.475C501.102 178.142 501.348 176.954 501.84 175.912C502.34 174.862 503.061 174.033 504.002 173.425C504.944 172.817 506.082 172.512 507.415 172.512C509.132 172.512 510.623 173.029 511.89 174.062L510.752 175.625C509.644 174.858 508.536 174.475 507.427 174.475C506.327 174.475 505.427 174.883 504.727 175.7C504.027 176.517 503.677 177.775 503.677 179.475C503.677 181.183 504.027 182.412 504.727 183.162C505.436 183.912 506.332 184.287 507.415 184.287Z" fill="#336CE1"/>
<path d="M526.98 185.325C526.513 185.625 525.951 185.862 525.293 186.037C524.643 186.221 523.984 186.312 523.318 186.312C521.851 186.312 520.726 185.929 519.943 185.162C519.168 184.396 518.78 183.4 518.78 182.175V174.625H515.793V172.825H518.78V169.85L521.18 169.562V172.825H525.68L525.405 174.625H521.18V182.15C521.18 182.875 521.363 183.421 521.73 183.787C522.105 184.154 522.726 184.337 523.593 184.337C524.076 184.337 524.522 184.283 524.93 184.175C525.347 184.058 525.73 183.904 526.08 183.712L526.98 185.325Z" fill="#336CE1"/>
<path d="M531.308 180.187V178.162H541.458V180.187H531.308Z" fill="#336CE1"/>
<path d="M555.973 182.975C555.973 183.5 556.056 183.883 556.223 184.125C556.39 184.358 556.652 184.533 557.011 184.65L556.448 186.3C555.848 186.225 555.323 186.046 554.873 185.762C554.431 185.479 554.106 185.046 553.898 184.462C553.423 185.079 552.823 185.542 552.098 185.85C551.373 186.158 550.586 186.312 549.736 186.312C548.411 186.312 547.365 185.937 546.598 185.187C545.831 184.437 545.448 183.45 545.448 182.225C545.448 180.858 545.981 179.808 547.048 179.075C548.123 178.333 549.665 177.962 551.673 177.962H553.586V176.962C553.586 176.054 553.315 175.408 552.773 175.025C552.24 174.642 551.494 174.45 550.536 174.45C550.094 174.45 549.573 174.504 548.973 174.612C548.381 174.721 547.748 174.892 547.073 175.125L546.461 173.375C547.269 173.067 548.048 172.846 548.798 172.712C549.548 172.579 550.248 172.512 550.898 172.512C552.59 172.512 553.856 172.9 554.698 173.675C555.548 174.45 555.973 175.504 555.973 176.837V182.975ZM550.411 184.512C551.019 184.512 551.606 184.354 552.173 184.037C552.748 183.721 553.219 183.279 553.586 182.712V179.525H551.836C550.444 179.525 549.456 179.762 548.873 180.237C548.29 180.704 547.998 181.346 547.998 182.162C547.998 183.729 548.802 184.512 550.411 184.512Z" fill="#336CE1"/>
<path d="M567.376 172.512C568.542 172.512 569.476 172.8 570.176 173.375C570.876 173.942 571.38 174.742 571.688 175.775C571.997 176.8 572.151 178.008 572.151 179.4C572.151 180.733 571.963 181.921 571.588 182.962C571.213 184.004 570.651 184.825 569.901 185.425C569.151 186.017 568.209 186.312 567.076 186.312C565.659 186.312 564.517 185.812 563.651 184.812V191.05L561.251 191.337V172.825H563.313L563.488 174.6C564.505 173.208 565.801 172.512 567.376 172.512ZM566.763 174.4C566.08 174.4 565.476 174.608 564.951 175.025C564.426 175.433 563.992 175.9 563.651 176.425V182.8C563.984 183.292 564.392 183.679 564.876 183.962C565.359 184.237 565.897 184.375 566.488 184.375C567.522 184.375 568.301 183.975 568.826 183.175C569.351 182.367 569.613 181.108 569.613 179.4C569.613 177.692 569.38 176.433 568.913 175.625C568.447 174.808 567.73 174.4 566.763 174.4Z" fill="#336CE1"/>
<path d="M582.366 172.512C583.533 172.512 584.466 172.8 585.166 173.375C585.866 173.942 586.37 174.742 586.679 175.775C586.987 176.8 587.141 178.008 587.141 179.4C587.141 180.733 586.954 181.921 586.579 182.962C586.204 184.004 585.641 184.825 584.891 185.425C584.141 186.017 583.199 186.312 582.066 186.312C580.649 186.312 579.508 185.812 578.641 184.812V191.05L576.241 191.337V172.825H578.304L578.479 174.6C579.495 173.208 580.791 172.512 582.366 172.512ZM581.754 174.4C581.07 174.4 580.466 174.608 579.941 175.025C579.416 175.433 578.983 175.9 578.641 176.425V182.8C578.974 183.292 579.383 183.679 579.866 183.962C580.349 184.237 580.887 184.375 581.479 184.375C582.512 184.375 583.291 183.975 583.816 183.175C584.341 182.367 584.604 181.108 584.604 179.4C584.604 177.692 584.37 176.433 583.904 175.625C583.437 174.808 582.72 174.4 581.754 174.4Z" fill="#336CE1"/>
<path d="M616.922 185.325C616.455 185.625 615.892 185.862 615.234 186.037C614.584 186.221 613.926 186.312 613.259 186.312C611.792 186.312 610.667 185.929 609.884 185.162C609.109 184.396 608.721 183.4 608.721 182.175V174.625H605.734V172.825H608.721V169.85L611.121 169.562V172.825H615.621L615.346 174.625H611.121V182.15C611.121 182.875 611.305 183.421 611.672 183.787C612.047 184.154 612.667 184.337 613.534 184.337C614.017 184.337 614.463 184.283 614.871 184.175C615.288 184.058 615.671 183.904 616.021 183.712L616.922 185.325Z" fill="#336CE1"/>
<path d="M623.149 180.225C623.216 181.675 623.608 182.729 624.324 183.387C625.049 184.046 625.908 184.375 626.899 184.375C627.558 184.375 628.162 184.275 628.712 184.075C629.262 183.875 629.82 183.583 630.387 183.2L631.474 184.712C630.858 185.204 630.145 185.596 629.337 185.887C628.528 186.171 627.691 186.312 626.824 186.312C625.508 186.312 624.387 186.025 623.462 185.45C622.545 184.867 621.845 184.058 621.362 183.025C620.887 181.992 620.649 180.792 620.649 179.425C620.649 178.1 620.887 176.917 621.362 175.875C621.845 174.833 622.524 174.012 623.399 173.412C624.274 172.812 625.316 172.512 626.524 172.512C628.224 172.512 629.562 173.096 630.537 174.262C631.52 175.421 632.012 177.008 632.012 179.025C632.012 179.25 632.008 179.467 631.999 179.675C631.991 179.883 631.978 180.067 631.962 180.225H623.149ZM626.549 174.387C625.608 174.387 624.828 174.721 624.212 175.387C623.595 176.054 623.241 177.083 623.149 178.475H629.699C629.674 177.142 629.383 176.129 628.824 175.437C628.274 174.737 627.516 174.387 626.549 174.387Z" fill="#336CE1"/>
<path d="M645.064 172.512C645.514 172.512 645.935 172.612 646.327 172.812C646.727 173.012 647.048 173.379 647.289 173.912C647.531 174.437 647.652 175.2 647.652 176.2V186H645.464V176.55C645.464 175.783 645.414 175.233 645.314 174.9C645.223 174.558 644.956 174.387 644.514 174.387C644.148 174.387 643.781 174.5 643.414 174.725C643.056 174.95 642.706 175.325 642.364 175.85V186H640.264V176.55C640.264 175.783 640.214 175.233 640.114 174.9C640.023 174.558 639.756 174.387 639.314 174.387C638.939 174.387 638.573 174.5 638.214 174.725C637.856 174.95 637.506 175.325 637.164 175.85V186H634.977V172.825H636.827L636.977 174.3C637.344 173.792 637.748 173.367 638.189 173.025C638.639 172.683 639.185 172.512 639.827 172.512C640.327 172.512 640.789 172.633 641.214 172.875C641.648 173.117 641.964 173.567 642.164 174.225C642.523 173.717 642.931 173.304 643.389 172.987C643.848 172.671 644.406 172.512 645.064 172.512Z" fill="#336CE1"/>
<path d="M657.317 172.512C658.484 172.512 659.417 172.8 660.117 173.375C660.817 173.942 661.321 174.742 661.63 175.775C661.938 176.8 662.092 178.008 662.092 179.4C662.092 180.733 661.905 181.921 661.53 182.962C661.155 184.004 660.592 184.825 659.842 185.425C659.092 186.017 658.151 186.312 657.017 186.312C655.601 186.312 654.459 185.812 653.592 184.812V191.05L651.192 191.337V172.825H653.255L653.43 174.6C654.446 173.208 655.742 172.512 657.317 172.512ZM656.705 174.4C656.021 174.4 655.417 174.608 654.892 175.025C654.367 175.433 653.934 175.9 653.592 176.425V182.8C653.926 183.292 654.334 183.679 654.817 183.962C655.301 184.237 655.838 184.375 656.43 184.375C657.463 184.375 658.242 183.975 658.767 183.175C659.292 182.367 659.555 181.108 659.555 179.4C659.555 177.692 659.321 176.433 658.855 175.625C658.388 174.808 657.671 174.4 656.705 174.4Z" fill="#336CE1"/>
<path d="M671.595 167.525V182.6C671.595 183.233 671.791 183.683 672.182 183.95C672.574 184.208 673.078 184.337 673.695 184.337C674.087 184.337 674.457 184.3 674.807 184.225C675.166 184.142 675.516 184.029 675.857 183.887L676.482 185.6C676.116 185.792 675.657 185.958 675.107 186.1C674.557 186.242 673.937 186.312 673.245 186.312C672.003 186.312 671.016 185.967 670.282 185.275C669.557 184.583 669.195 183.633 669.195 182.425V169.35H665.182V167.525H671.595Z" fill="#336CE1"/>
<path d="M690.885 182.975C690.885 183.5 690.968 183.883 691.135 184.125C691.302 184.358 691.564 184.533 691.923 184.65L691.36 186.3C690.76 186.225 690.235 186.046 689.785 185.762C689.343 185.479 689.019 185.046 688.81 184.462C688.335 185.079 687.735 185.542 687.01 185.85C686.285 186.158 685.498 186.312 684.648 186.312C683.323 186.312 682.277 185.937 681.51 185.187C680.743 184.437 680.36 183.45 680.36 182.225C680.36 180.858 680.894 179.808 681.96 179.075C683.035 178.333 684.577 177.962 686.585 177.962H688.498V176.962C688.498 176.054 688.227 175.408 687.685 175.025C687.152 174.642 686.406 174.45 685.448 174.45C685.006 174.45 684.485 174.504 683.885 174.612C683.293 174.721 682.66 174.892 681.985 175.125L681.373 173.375C682.181 173.067 682.96 172.846 683.71 172.712C684.46 172.579 685.16 172.512 685.81 172.512C687.502 172.512 688.769 172.9 689.61 173.675C690.46 174.45 690.885 175.504 690.885 176.837V182.975ZM685.323 184.512C685.931 184.512 686.519 184.354 687.085 184.037C687.66 183.721 688.131 183.279 688.498 182.712V179.525H686.748C685.356 179.525 684.368 179.762 683.785 180.237C683.202 180.704 682.91 181.346 682.91 182.162C682.91 183.729 683.714 184.512 685.323 184.512Z" fill="#336CE1"/>
<path d="M706.863 185.325C706.396 185.625 705.834 185.862 705.175 186.037C704.525 186.221 703.867 186.312 703.2 186.312C701.734 186.312 700.609 185.929 699.825 185.162C699.05 184.396 698.663 183.4 698.663 182.175V174.625H695.675V172.825H698.663V169.85L701.063 169.562V172.825H705.563L705.288 174.625H701.063V182.15C701.063 182.875 701.246 183.421 701.613 183.787C701.988 184.154 702.609 184.337 703.475 184.337C703.959 184.337 704.405 184.283 704.813 184.175C705.23 184.058 705.613 183.904 705.963 183.712L706.863 185.325Z" fill="#336CE1"/>
<path d="M713.091 180.225C713.157 181.675 713.549 182.729 714.266 183.387C714.991 184.046 715.849 184.375 716.841 184.375C717.499 184.375 718.103 184.275 718.653 184.075C719.203 183.875 719.761 183.583 720.328 183.2L721.416 184.712C720.799 185.204 720.086 185.596 719.278 185.887C718.47 186.171 717.632 186.312 716.766 186.312C715.449 186.312 714.328 186.025 713.403 185.45C712.486 184.867 711.786 184.058 711.303 183.025C710.828 181.992 710.591 180.792 710.591 179.425C710.591 178.1 710.828 176.917 711.303 175.875C711.786 174.833 712.466 174.012 713.341 173.412C714.216 172.812 715.257 172.512 716.466 172.512C718.166 172.512 719.503 173.096 720.478 174.262C721.461 175.421 721.953 177.008 721.953 179.025C721.953 179.25 721.949 179.467 721.941 179.675C721.932 179.883 721.92 180.067 721.903 180.225H713.091ZM716.491 174.387C715.549 174.387 714.77 174.721 714.153 175.387C713.536 176.054 713.182 177.083 713.091 178.475H719.641C719.616 177.142 719.324 176.129 718.766 175.437C718.216 174.737 717.457 174.387 716.491 174.387Z" fill="#336CE1"/>
<path d="M589.032 130.948C589.032 133.841 588.145 136.175 586.372 137.948C584.617 139.703 582.452 140.916 579.876 141.588L591.104 158.584H584.524L574.36 142.316H569.572V158.584H564V120H574.276C579.111 120 582.779 120.924 585.28 122.772C587.781 124.601 589.032 127.327 589.032 130.948ZM583.124 130.948C583.124 128.577 582.433 126.869 581.052 125.824C579.689 124.779 577.589 124.256 574.752 124.256H569.572V138.088H574.808C577.459 138.088 579.503 137.547 580.94 136.464C582.396 135.363 583.124 133.524 583.124 130.948Z" fill="#61DAFB"/>
<path d="M601.974 145.648C602.123 148.896 603.001 151.257 604.606 152.732C606.23 154.207 608.153 154.944 610.374 154.944C611.849 154.944 613.202 154.72 614.434 154.272C615.666 153.824 616.917 153.171 618.186 152.312L620.622 155.7C619.241 156.801 617.645 157.679 615.834 158.332C614.023 158.967 612.147 159.284 610.206 159.284C607.257 159.284 604.746 158.64 602.674 157.352C600.621 156.045 599.053 154.235 597.97 151.92C596.906 149.605 596.374 146.917 596.374 143.856C596.374 140.888 596.906 138.237 597.97 135.904C599.053 133.571 600.574 131.732 602.534 130.388C604.494 129.044 606.827 128.372 609.534 128.372C613.342 128.372 616.338 129.679 618.522 132.292C620.725 134.887 621.826 138.443 621.826 142.96C621.826 143.464 621.817 143.949 621.798 144.416C621.779 144.883 621.751 145.293 621.714 145.648H601.974ZM609.59 132.572C607.481 132.572 605.735 133.319 604.354 134.812C602.973 136.305 602.179 138.611 601.974 141.728H616.646C616.59 138.741 615.937 136.473 614.686 134.924C613.454 133.356 611.755 132.572 609.59 132.572Z" fill="#61DAFB"/>
<path d="M652.968 151.808C652.968 152.984 653.155 153.843 653.528 154.384C653.902 154.907 654.49 155.299 655.292 155.56L654.032 159.256C652.688 159.088 651.512 158.687 650.504 158.052C649.515 157.417 648.787 156.447 648.32 155.14C647.256 156.521 645.912 157.557 644.288 158.248C642.664 158.939 640.9 159.284 638.996 159.284C636.028 159.284 633.686 158.444 631.968 156.764C630.251 155.084 629.392 152.872 629.392 150.128C629.392 147.067 630.587 144.715 632.976 143.072C635.384 141.411 638.838 140.58 643.336 140.58H647.62V138.34C647.62 136.305 647.014 134.859 645.8 134C644.606 133.141 642.935 132.712 640.788 132.712C639.799 132.712 638.632 132.833 637.288 133.076C635.963 133.319 634.544 133.701 633.032 134.224L631.66 130.304C633.471 129.613 635.216 129.119 636.896 128.82C638.576 128.521 640.144 128.372 641.6 128.372C645.39 128.372 648.227 129.24 650.112 130.976C652.016 132.712 652.968 135.073 652.968 138.06V151.808ZM640.508 155.252C641.871 155.252 643.187 154.897 644.456 154.188C645.744 153.479 646.799 152.489 647.62 151.22V144.08H643.7C640.583 144.08 638.371 144.612 637.064 145.676C635.758 146.721 635.104 148.159 635.104 149.988C635.104 153.497 636.906 155.252 640.508 155.252Z" fill="#61DAFB"/>
<path d="M678.51 154.748C679.948 154.748 681.282 154.515 682.514 154.048C683.765 153.563 684.932 152.937 686.014 152.172L688.59 155.672C687.284 156.755 685.716 157.632 683.886 158.304C682.076 158.957 680.256 159.284 678.426 159.284C675.458 159.284 672.92 158.649 670.81 157.38C668.72 156.111 667.124 154.328 666.022 152.032C664.921 149.736 664.37 147.048 664.37 143.968C664.37 140.981 664.921 138.321 666.022 135.988C667.142 133.636 668.757 131.779 670.866 130.416C672.976 129.053 675.524 128.372 678.51 128.372C682.356 128.372 685.697 129.529 688.534 131.844L685.986 135.344C683.504 133.627 681.021 132.768 678.538 132.768C676.074 132.768 674.058 133.683 672.49 135.512C670.922 137.341 670.138 140.16 670.138 143.968C670.138 147.795 670.922 150.548 672.49 152.228C674.077 153.908 676.084 154.748 678.51 154.748Z" fill="#61DAFB"/>
<path d="M722.337 157.072C721.291 157.744 720.031 158.276 718.557 158.668C717.101 159.079 715.626 159.284 714.133 159.284C710.847 159.284 708.327 158.425 706.573 156.708C704.837 154.991 703.969 152.76 703.969 150.016V133.104H697.277V129.072H703.969V122.408L709.345 121.764V129.072H719.425L718.809 133.104H709.345V149.96C709.345 151.584 709.755 152.807 710.577 153.628C711.417 154.449 712.807 154.86 714.749 154.86C715.831 154.86 716.83 154.739 717.745 154.496C718.678 154.235 719.537 153.889 720.321 153.46L722.337 157.072Z" fill="#61DAFB"/>
<path d="M382.324 131.364C382.324 134.257 381.437 136.591 379.664 138.364C377.909 140.119 375.744 141.332 373.168 142.004L384.396 159H377.816L367.652 142.732H362.864V159H357.292V120.416H367.568C372.403 120.416 376.071 121.34 378.572 123.188C381.073 125.017 382.324 127.743 382.324 131.364ZM376.416 131.364C376.416 128.993 375.725 127.285 374.344 126.24C372.981 125.195 370.881 124.672 368.044 124.672H362.864V138.504H368.1C370.751 138.504 372.795 137.963 374.232 136.88C375.688 135.779 376.416 133.94 376.416 131.364ZM395.266 146.064C395.415 149.312 396.293 151.673 397.898 153.148C399.522 154.623 401.445 155.36 403.666 155.36C405.141 155.36 406.494 155.136 407.726 154.688C408.958 154.24 410.209 153.587 411.478 152.728L413.914 156.116C412.533 157.217 410.937 158.095 409.126 158.748C407.315 159.383 405.439 159.7 403.498 159.7C400.549 159.7 398.038 159.056 395.966 157.768C393.913 156.461 392.345 154.651 391.262 152.336C390.198 150.021 389.666 147.333 389.666 144.272C389.666 141.304 390.198 138.653 391.262 136.32C392.345 133.987 393.866 132.148 395.826 130.804C397.786 129.46 400.119 128.788 402.826 128.788C406.634 128.788 409.63 130.095 411.814 132.708C414.017 135.303 415.118 138.859 415.118 143.376C415.118 143.88 415.109 144.365 415.09 144.832C415.071 145.299 415.043 145.709 415.006 146.064H395.266ZM402.882 132.988C400.773 132.988 399.027 133.735 397.646 135.228C396.265 136.721 395.471 139.027 395.266 142.144H409.938C409.882 139.157 409.229 136.889 407.978 135.34C406.746 133.772 405.047 132.988 402.882 132.988ZM446.26 152.224C446.26 153.4 446.447 154.259 446.82 154.8C447.194 155.323 447.782 155.715 448.584 155.976L447.324 159.672C445.98 159.504 444.804 159.103 443.796 158.468C442.807 157.833 442.079 156.863 441.612 155.556C440.548 156.937 439.204 157.973 437.58 158.664C435.956 159.355 434.192 159.7 432.288 159.7C429.32 159.7 426.978 158.86 425.26 157.18C423.543 155.5 422.684 153.288 422.684 150.544C422.684 147.483 423.879 145.131 426.268 143.488C428.676 141.827 432.13 140.996 436.628 140.996H440.912V138.756C440.912 136.721 440.306 135.275 439.092 134.416C437.898 133.557 436.227 133.128 434.08 133.128C433.091 133.128 431.924 133.249 430.58 133.492C429.255 133.735 427.836 134.117 426.324 134.64L424.952 130.72C426.763 130.029 428.508 129.535 430.188 129.236C431.868 128.937 433.436 128.788 434.892 128.788C438.682 128.788 441.519 129.656 443.404 131.392C445.308 133.128 446.26 135.489 446.26 138.476V152.224ZM433.8 155.668C435.163 155.668 436.479 155.313 437.748 154.604C439.036 153.895 440.091 152.905 440.912 151.636V144.496H436.992C433.875 144.496 431.663 145.028 430.356 146.092C429.05 147.137 428.396 148.575 428.396 150.404C428.396 153.913 430.198 155.668 433.8 155.668ZM468.414 155.416C470.561 155.416 472.25 155.024 473.482 154.24C474.733 153.456 475.358 152.392 475.358 151.048C475.358 150.189 475.19 149.461 474.854 148.864C474.537 148.248 473.865 147.688 472.838 147.184C471.83 146.661 470.3 146.139 468.246 145.616C466.23 145.112 464.476 144.524 462.982 143.852C461.508 143.18 460.36 142.303 459.538 141.22C458.736 140.137 458.334 138.737 458.334 137.02C458.334 134.519 459.38 132.521 461.47 131.028C463.561 129.535 466.333 128.788 469.786 128.788C472.213 128.788 474.322 129.115 476.114 129.768C477.906 130.403 479.437 131.187 480.706 132.12L478.41 135.62C477.272 134.873 476.021 134.257 474.658 133.772C473.314 133.268 471.728 133.016 469.898 133.016C467.714 133.016 466.156 133.352 465.222 134.024C464.308 134.677 463.85 135.545 463.85 136.628C463.85 137.449 464.074 138.131 464.522 138.672C464.989 139.195 465.782 139.68 466.902 140.128C468.022 140.557 469.572 141.043 471.55 141.584C473.473 142.107 475.153 142.723 476.59 143.432C478.028 144.141 479.138 145.075 479.922 146.232C480.725 147.371 481.126 148.873 481.126 150.74C481.126 152.849 480.52 154.567 479.306 155.892C478.093 157.199 476.516 158.16 474.574 158.776C472.652 159.392 470.598 159.7 468.414 159.7C465.726 159.7 463.412 159.308 461.47 158.524C459.548 157.74 457.933 156.779 456.626 155.64L459.594 152.224C460.733 153.176 462.049 153.951 463.542 154.548C465.054 155.127 466.678 155.416 468.414 155.416ZM503.169 128.788C507.387 128.788 510.589 130.188 512.773 132.988C514.975 135.788 516.077 139.531 516.077 144.216C516.077 147.259 515.573 149.947 514.565 152.28C513.575 154.613 512.119 156.433 510.197 157.74C508.274 159.047 505.913 159.7 503.113 159.7C498.894 159.7 495.674 158.3 493.453 155.5C491.25 152.7 490.149 148.957 490.149 144.272C490.149 141.211 490.643 138.523 491.633 136.208C492.641 133.875 494.106 132.055 496.029 130.748C497.97 129.441 500.35 128.788 503.169 128.788ZM503.169 133.072C500.742 133.072 498.913 133.987 497.681 135.816C496.449 137.627 495.833 140.445 495.833 144.272C495.833 148.061 496.439 150.871 497.653 152.7C498.866 154.511 500.686 155.416 503.113 155.416C505.539 155.416 507.359 154.511 508.573 152.7C509.786 150.871 510.393 148.043 510.393 144.216C510.393 140.408 509.786 137.599 508.573 135.788C507.359 133.977 505.558 133.072 503.169 133.072ZM525.239 159V129.488H529.859L530.251 133.464C531.464 131.952 532.939 130.795 534.675 129.992C536.429 129.189 538.175 128.788 539.911 128.788C542.748 128.788 544.839 129.563 546.183 131.112C547.527 132.643 548.199 134.78 548.199 137.524V159H542.823V140.828C542.823 138.961 542.711 137.449 542.487 136.292C542.281 135.135 541.843 134.295 541.171 133.772C540.499 133.231 539.481 132.96 538.119 132.96C536.513 132.96 535.057 133.455 533.751 134.444C532.444 135.433 531.399 136.497 530.615 137.636V159H525.239Z" fill="#DD4B39"/>
</g>
<defs>
<filter id="filter0_d" x="0" y="0" width="808" height="308" filterUnits="userSpaceOnUse" color-interpolation-filters="sRGB">
<feFlood flood-opacity="0" result="BackgroundImageFix"/>
<feColorMatrix in="SourceAlpha" type="matrix" values="0 0 0 0 0 0 0 0 0 0 0 0 0 0 0 0 0 0 127 0"/>
<feOffset dx="3" dy="4"/>
<feGaussianBlur stdDeviation="2"/>
<feColorMatrix type="matrix" values="0 0 0 0 0 0 0 0 0 0 0 0 0 0 0 0 0 0 0.25 0"/>
<feBlend mode="normal" in2="BackgroundImageFix" result="effect1_dropShadow"/>
<feBlend mode="normal" in="SourceGraphic" in2="effect1_dropShadow" result="shape"/>
</filter>
</defs>
</svg>
